<?xml version="1.0" encoding="UTF-8" standalone="no"?><!DOCTYPE svg PUBLIC "-//W3C//DTD SVG 1.1//EN" "http://www.w3.org/Graphics/SVG/1.1/DTD/svg11.dtd"><svg width="100%" height="100%" viewBox="0 0 4500 4500" version="1.1" xmlns="http://www.w3.org/2000/svg" xmlns:xlink="http://www.w3.org/1999/xlink" xml:space="preserve" xmlns:serif="http://www.serif.com/" style="fill-rule:evenodd;clip-rule:evenodd;stroke-linejoin:round;stroke-miterlimit:2;"><path d="M3500,682.985l-2916.67,0l0,3134.03l2916.67,-0l0,-417.957l416.667,0l-0,-1252.58l-416.667,0l0,-419.246l416.667,-0l-0,-626.29l-416.667,-0l0,-417.957Zm-208.333,1671.18l-416.667,-0l0,835.913l416.667,-0l-0,-835.913Zm-2019.92,-147.093c-6.655,15.64 -15.973,26.704 -27.952,33.193c-11.979,6.489 -25.955,9.733 -41.928,9.733c-14.974,-0 -29.033,-2.828 -42.177,-8.485c-13.145,-5.657 -24.708,-13.976 -34.691,-24.958c-9.983,-10.981 -17.886,-24.291 -23.709,-39.931c-5.823,-15.64 -8.735,-33.442 -8.735,-53.408l-0,-7.986c-0,-19.633 2.828,-37.27 8.485,-52.909c5.657,-15.64 13.311,-28.951 22.961,-39.932c9.65,-10.981 20.881,-19.383 33.692,-25.206c12.811,-5.824 26.538,-8.735 41.179,-8.735c17.636,-0 31.862,2.995 42.677,8.984c10.815,5.99 19.383,15.307 25.706,27.952l8.984,0l0,-29.948l62.892,-0l0,172.703c0,9.983 4.492,14.974 13.477,14.974l9.484,-0l-0,59.897l-42.927,0c-11.314,0 -20.548,-3.328 -27.702,-9.983c-7.154,-6.655 -10.732,-15.307 -10.732,-25.955l-8.984,-0Zm133.271,-211.636l104.82,-0l-0,35.938l8.984,-0c4.659,-13.643 12.562,-24.209 23.709,-31.696c11.148,-7.487 24.541,-11.23 40.181,-11.23c24.625,-0 44.424,7.736 59.398,23.21c14.974,15.473 22.462,39.016 22.462,70.628l-0,10.981l-64.889,5.99l0,-6.988c0,-13.643 -3.494,-24.541 -10.482,-32.694c-6.988,-8.152 -17.47,-12.229 -31.446,-12.229c-13.976,0 -24.957,4.825 -32.943,14.476c-7.986,9.65 -11.98,23.459 -11.98,41.428l0,79.863l56.903,-0l-0,59.897l-170.707,0l0,-59.897l50.913,-0l-0,-127.78l-44.923,-0l-0,-59.897Zm-600.468,187.677l86.851,-0l-0,-229.605l-83.856,-0l-0,-59.897l146.748,-0l-0,289.502l80.861,-0l-0,59.897l-230.604,0l0,-59.897Zm411.293,6.988c18.302,-0 32.943,-6.073 43.924,-18.219c10.982,-12.145 16.472,-28.7 16.472,-49.664l0,-5.99c0,-20.964 -5.49,-37.519 -16.472,-49.665c-10.981,-12.145 -25.622,-18.218 -43.924,-18.218c-18.302,-0 -32.943,6.073 -43.925,18.218c-10.981,12.146 -16.471,28.701 -16.471,49.665l-0,5.99c-0,20.964 5.49,37.519 16.471,49.664c10.982,12.146 25.623,18.219 43.925,18.219Zm-25.456,-623.927c-0,7.986 4.159,13.726 12.478,17.22c8.319,3.494 23.46,6.406 45.422,8.735c25.29,2.662 45.921,10.232 61.894,22.711c15.972,12.478 23.959,29.865 23.959,52.16l-0,2.995c-0,24.624 -8.985,44.257 -26.954,58.899c-17.969,14.641 -43.259,21.962 -75.87,21.962c-19.3,0 -35.771,-2.496 -49.415,-7.487c-13.643,-4.991 -24.957,-11.231 -33.941,-18.718c-8.985,-7.487 -15.89,-15.806 -20.715,-24.957c-4.825,-9.151 -8.069,-18.052 -9.733,-26.704l57.9,-18.967c2.663,10.648 8.236,19.965 16.722,27.952c8.485,7.986 21.546,11.979 39.182,11.979c15.64,-0 26.372,-2.413 32.195,-7.238c5.823,-4.825 8.735,-10.066 8.735,-15.723c0,-3.327 -0.749,-6.405 -2.246,-9.234c-1.498,-2.828 -4.243,-5.49 -8.236,-7.986c-3.993,-2.496 -9.4,-4.575 -16.222,-6.239c-6.822,-1.664 -15.39,-2.995 -25.706,-3.993c-27.952,-2.33 -50.164,-9.567 -66.635,-21.713c-16.472,-12.146 -24.708,-30.032 -24.708,-53.658l0,-2.995c0,-12.312 2.662,-23.127 7.986,-32.444c5.325,-9.317 12.313,-17.22 20.964,-23.709c8.652,-6.489 18.635,-11.397 29.949,-14.725c11.314,-3.327 22.96,-4.991 34.94,-4.991c15.64,-0 29.2,1.913 40.68,5.74c11.48,3.827 21.213,8.818 29.2,14.974c7.986,6.156 14.475,12.978 19.466,20.465c4.992,7.487 8.818,14.725 11.48,21.713l-56.902,22.96c-2.995,-8.984 -8.152,-16.056 -15.473,-21.213c-7.321,-5.158 -16.805,-7.737 -28.451,-7.737c-10.649,-0 -18.635,1.913 -23.959,5.74c-5.324,3.827 -7.986,8.569 -7.986,14.226Zm754.203,117.797l0,59.897l-215.629,0l-0,-104.82l155.732,-75.869l0,-8.985l-152.737,0l-0,-57.9l206.644,-0l0,101.825l-155.732,76.868l0,8.984l161.722,0Zm-523.101,0l83.856,0l0,-127.78l-77.866,-0l0,-59.897l140.758,-0l0,187.677l71.877,0l-0,59.897l-218.625,0l0,-59.897Zm-366.869,59.897l-62.892,0l0,-173.701c0,-6.988 -1.747,-12.229 -5.241,-15.723c-3.494,-3.494 -8.069,-5.241 -13.726,-5.241c-6.655,-0 -11.896,1.996 -15.723,5.989c-3.827,3.994 -5.74,9.983 -5.74,17.97l-0,170.706l-62.892,0l-0,-173.701c-0,-6.988 -1.913,-12.229 -5.74,-15.723c-3.827,-3.494 -8.402,-5.241 -13.727,-5.241c-5.989,-0 -10.981,1.996 -14.974,5.989c-3.993,3.994 -5.99,9.983 -5.99,17.97l0,170.706l-62.891,0l-0,-247.574l62.891,-0l0,23.959l8.985,-0c1.997,-8.985 6.572,-16.389 13.726,-22.212c7.155,-5.824 16.555,-8.735 28.202,-8.735c10.981,-0 20.298,2.911 27.952,8.735c7.653,5.823 12.811,13.227 15.473,22.212l8.985,-0c2.662,-8.985 8.236,-16.389 16.721,-22.212c8.485,-5.824 19.051,-8.735 31.696,-8.735c16.638,-0 29.948,5.574 39.931,16.721c9.983,11.148 14.974,26.538 14.974,46.171l0,191.67Zm2237.05,-433.95l-416.667,0l-0,208.334l416.667,-0l-0,-208.334Zm-1697.98,-101.13l-8.984,0c-2.662,5.657 -5.907,11.064 -9.733,16.222c-3.827,5.158 -8.819,9.733 -14.975,13.727c-6.156,3.993 -13.477,7.154 -21.962,9.483c-8.485,2.33 -18.718,3.494 -30.697,3.494c-15.307,0 -29.533,-2.745 -42.677,-8.236c-13.144,-5.49 -24.624,-13.643 -34.441,-24.458c-9.816,-10.814 -17.47,-24.042 -22.96,-39.681c-5.491,-15.64 -8.236,-33.609 -8.236,-53.908l0,-8.984c0,-19.966 2.912,-37.769 8.735,-53.408c5.823,-15.64 13.81,-28.867 23.959,-39.682c10.149,-10.815 21.962,-19.051 35.439,-24.708c13.477,-5.657 27.702,-8.485 42.677,-8.485c19.965,-0 35.771,3.743 47.418,11.231c11.647,7.487 20.798,18.052 27.453,31.695l8.984,0l0,-35.938l62.892,-0l0,308.47c0,11.313 -3.577,20.631 -10.731,27.951c-7.155,7.321 -16.389,10.982 -27.703,10.982l-166.713,-0l-0,-59.897l128.779,-0c8.984,-0 13.476,-4.992 13.476,-14.975l0,-60.895Zm-321.946,0c-6.655,15.64 -15.973,26.704 -27.952,33.193c-11.979,6.489 -25.955,9.733 -41.928,9.733c-14.974,0 -29.033,-2.828 -42.177,-8.485c-13.145,-5.657 -24.708,-13.976 -34.691,-24.957c-9.983,-10.981 -17.886,-24.292 -23.709,-39.932c-5.823,-15.639 -8.735,-33.442 -8.735,-53.408l-0,-7.986c-0,-19.633 2.828,-37.269 8.485,-52.909c5.657,-15.64 13.311,-28.95 22.961,-39.931c9.65,-10.982 20.881,-19.384 33.692,-25.207c12.811,-5.823 26.538,-8.735 41.179,-8.735c17.636,-0 31.862,2.995 42.677,8.984c10.815,5.99 19.383,15.307 25.706,27.952l8.984,0l0,-29.948l62.892,-0l0,172.703c0,9.983 4.492,14.974 13.477,14.974l9.484,0l-0,59.897l-42.927,0c-11.314,0 -20.548,-3.327 -27.702,-9.983c-7.154,-6.655 -10.732,-15.307 -10.732,-25.955l-8.984,0Zm-413.29,35.938l-62.892,0l0,-349.399l62.892,-0l0,137.763l8.985,0c6.655,-13.643 16.305,-24.208 28.95,-31.695c12.645,-7.488 28.784,-11.231 48.417,-11.231c14.641,-0 28.534,2.828 41.678,8.485c13.144,5.657 24.625,13.893 34.441,24.708c9.817,10.815 17.636,24.042 23.46,39.682c5.823,15.639 8.735,33.442 8.735,53.408l-0,8.984c-0,20.299 -2.829,38.268 -8.486,53.908c-5.657,15.639 -13.31,28.867 -22.96,39.681c-9.65,10.815 -21.047,18.968 -34.191,24.458c-13.145,5.491 -27.37,8.236 -42.677,8.236c-11.314,0 -21.13,-1.164 -29.449,-3.494c-8.319,-2.329 -15.557,-5.49 -21.713,-9.483c-6.156,-3.994 -11.314,-8.569 -15.474,-13.727c-4.159,-5.158 -7.736,-10.565 -10.731,-16.222l-8.985,0l0,35.938Zm868.507,-59.897l83.856,0l0,-127.78l-77.866,-0l-0,-59.897l140.758,-0l-0,187.677l71.876,0l0,59.897l-218.624,0l0,-59.897Zm-511.121,6.988c18.302,0 32.943,-6.073 43.924,-18.218c10.982,-12.146 16.472,-28.701 16.472,-49.665l0,-5.99c0,-20.964 -5.49,-37.519 -16.472,-49.664c-10.981,-12.146 -25.622,-18.219 -43.924,-18.219c-18.302,-0 -32.943,6.073 -43.925,18.219c-10.981,12.145 -16.471,28.7 -16.471,49.664l-0,5.99c-0,20.964 5.49,37.519 16.471,49.665c10.982,12.145 25.623,18.218 43.925,18.218Zm311.964,0c19.633,0 35.522,-6.239 47.668,-18.718c12.145,-12.478 18.218,-28.867 18.218,-49.165l0,-5.99c0,-20.298 -6.073,-36.687 -18.218,-49.165c-12.146,-12.479 -28.035,-18.718 -47.668,-18.718c-19.633,-0 -35.523,6.073 -47.668,18.219c-12.146,12.145 -18.219,28.7 -18.219,49.664l-0,5.99c-0,20.964 6.073,37.519 18.219,49.665c12.145,12.145 28.035,18.218 47.668,18.218Zm-603.463,0c19.633,0 35.522,-6.073 47.668,-18.218c12.146,-12.146 18.219,-28.701 18.219,-49.665l-0,-5.99c-0,-20.964 -6.073,-37.519 -18.219,-49.664c-12.146,-12.146 -28.035,-18.219 -47.668,-18.219c-19.633,-0 -35.522,6.239 -47.668,18.718c-12.146,12.478 -18.219,28.867 -18.219,49.165l0,5.99c0,20.298 6.073,36.687 18.219,49.165c12.146,12.479 28.035,18.718 47.668,18.718Zm704.705,-296.49l-180.107,-0l0,59.897l180.107,-0l0,-59.897Z" style="fill:#af69cc;"/></svg>